<svg xmlns="http://www.w3.org/2000/svg" viewBox="0 0 900 600">
    <rect width="900" height="600" fill="#ee1c25"/>
    <rect width="900" height="400" fill="#fff"/>
    <rect width="900" height="200" fill="#0b4ea2"/>
    <path d="M 225,206.25 h 450 v 187.5 c 0,103.5 -112.5,187.5 -225,187.5 c -112.5,0 -225,-84 -225,-187.5 z" fill="#fff"/>
    <path d="M 225,206.25 h 450 v 187.5 c 0,103.5 -112.5,187.5 -225,187.5 c -112.5,0 -225,-84 -225,-187.5 z" fill="#ee1c25" transform="translate(0,30)"/>
    <path d="M 273.75,350 c 0,0 27,-36 76.5,-36 c 49.5,0 76.5,36 76.5,36 v 24 c 0,0 -27,36 -76.5,36 c -49.5,0 -76.5,-36 -76.5,-36 z M 426.75,350 c 0,0 27,-36 76.5,-36 c 49.5,0 76.5,36 76.5,36 v 24 c 0,0 -27,36 -76.5,36 c -49.5,0 -76.5,-36 -76.5,-36 z" fill="#fff"/>
</svg>